# xmcd
#
# Track frame offsets:
#	150
#	13537
#	25408
#	41476
#	58384
#	70833
#	82500
#	97052
#	113982
#	125722
#
# Disc length: 1897 seconds
# Revision: 0
# Processed by: cddbd v1.5.2PL0 Copyright (c) Steve Scherf et al.
# Submitted via: dBpowerAMP V12.0
#
DISCID=8307670a
DTITLE=Lorraine Jordan and Friends - Gospel Favorites  Disc 2 of 2
DYEAR=2015
DGENRE=Country Gospel
TTITLE0=I Saw the Light
TTITLE1=Old Country Church
TTITLE2=Fallen Leaves
TTITLE3=When My Savior Reached Down for Me
TTITLE4=Are You Washed in the Blood
TTITLE5=Harp with Golden Strings
TTITLE6=Just a Little Talk with Jesus
TTITLE7=Amazing Grace
TTITLE8=One of These Days
TTITLE9=Will the Circle Be Unbroken
EXTD=
EXTT0=
EXTT1=
EXTT2=
EXTT3=
EXTT4=
EXTT5=
EXTT6=
EXTT7=
EXTT8=
EXTT9=
PLAYORDER=
